mtllib phonebooth.mtl
o phonebooth.obj
v -0.668837 0.000000 -1.500000
v 1.500000 0.000000 -1.500000
v -1.565161 4.000000 -1.500000
v 1.500000 4.000000 -1.500000
v -0.668837 0.000000 1.500000
v 1.500000 0.000000 1.500000
v -1.565161 4.000000 1.500000
v 1.500000 4.000000 1.500000
v -0.603676 -0.131923 -1.631923
v 1.631923 -0.131923 -1.631923
v -1.500000 4.131923 -1.631923
v 1.631923 4.131923 -1.631923
v -0.603676 -0.131923 1.631923
v 1.631923 -0.131923 1.631923
v -1.500000 4.131923 1.631923
v 1.631923 4.131923 1.631923
v -0.603676 -0.131923 0.295875
v 1.631923 -0.131923 0.295875
v -0.603676 -0.131923 -0.295875
v 1.631923 -0.131923 -0.295875
v 0.926448 -0.408623 0.295875
v 1.559948 -0.408623 0.295875
v 0.926448 -0.408623 -0.295875
v 1.559948 -0.408623 -0.295875
v 0.926448 -3.572918 0.295875
v 1.559948 -3.572918 0.295875
v 0.926448 -3.572918 -0.295875
v 1.559948 -3.572918 -0.295875
v 0.380772 -3.874664 0.805590
v 2.105624 -3.874664 0.805590
v 0.380772 -3.874664 -0.805590
v 2.105624 -3.874664 -0.805590
v 0.294529 -4.188591 0.886149
v 2.191866 -4.188591 0.886149
v 0.294529 -4.188591 -0.886149
v 2.191866 -4.188591 -0.886149
v 1.799272 -0.011248 1.539550
v 1.799272 4.011248 1.539550
v 1.799272 -0.011248 -1.539550
v 1.799272 4.011248 -1.539550
vn -0.914159 0.178368 0.364003
vn -0.577350 0.577350 0.577350
vn -0.868036 -0.356440 0.345637
vn -0.577350 -0.577350 0.577350
vn -0.946415 0.215559 -0.240485
vn -0.577350 0.577350 -0.577350
vn -0.895610 -0.382220 -0.227575
vn -0.577350 -0.577350 -0.577350
vn -0.791500 -0.275837 -0.545382
vn 0.379105 -0.642801 -0.665648
vn -0.719335 0.486705 -0.495657
vn 0.379105 0.642801 -0.665648
vn -0.711202 -0.255775 0.654806
vn 0.379105 -0.642801 0.665648
vn -0.644525 0.482126 0.593416
vn 0.379105 0.642801 0.665648
vn -0.125829 -0.695821 0.707107
vn 0.517050 -0.668752 0.534256
vn -0.125829 -0.695821 -0.707107
vn 0.517050 -0.668752 -0.534256
vn -0.467238 -0.390323 0.793308
vn 0.698538 -0.089365 0.709971
vn -0.467238 -0.390323 -0.793308
vn 0.698538 -0.089365 -0.709971
vn -0.542111 0.634069 0.551427
vn 0.542111 0.634069 0.551427
vn -0.542111 0.634069 -0.551427
vn 0.542111 0.634069 -0.551427
vn -0.473855 0.735917 0.483620
vn 0.473855 0.735917 0.483620
vn -0.473855 0.735917 -0.483620
vn 0.473855 0.735917 -0.483620
vn -0.664661 -0.335359 0.667653
vn 0.664661 -0.335358 0.667653
vn -0.664661 -0.335358 -0.667653
vn 0.664661 -0.335358 -0.667653
vn 0.866129 -0.339690 0.366649
vn 0.866129 0.339690 0.366649
vn 0.866129 -0.339690 -0.366649
vn 0.866129 0.339690 -0.366649
vt 0.000000 0.000000
vt 0.000000 0.000000
vt 0.000000 0.000000
vt 0.000000 0.000000
vt 0.000000 0.000000
vt 0.000000 0.000000
vt 0.000000 0.000000
vt 0.000000 0.000000
vt 0.000000 0.000000
vt 0.000000 0.000000
vt 0.000000 0.000000
vt 0.000000 0.000000
vt 0.000000 0.000000
vt 0.000000 0.000000
vt 0.000000 0.000000
vt 0.000000 0.000000
vt 0.000000 0.000000
vt 0.000000 0.000000
vt 0.000000 0.000000
vt 0.000000 0.000000
vt 0.000000 0.000000
vt 0.000000 0.000000
vt 0.000000 0.000000
vt 0.000000 0.000000
vt 0.000000 0.000000
vt 0.000000 1.000000
vt 1.000000 1.000000
vt 1.000000 0.000000
vt 0.000000 0.000000
vt 0.000000 1.000000
vt 1.000000 1.000000
vt 1.000000 0.000000
vt 0.000000 0.000000
vt 0.000000 1.000000
vt 1.000000 1.000000
vt 1.000000 0.000000
vt 0.000000 0.000000
vt 0.000000 1.000000
vt 1.000000 1.000000
vt 1.000000 0.000000
vt 0.000000 0.000000
vt 0.000000 1.000000
vt 1.000000 1.000000
vt 1.000000 0.000000
vt 0.000000 0.000000
vt 0.000000 1.000000
vt 1.000000 1.000000
vt 1.000000 0.000000
vt 0.000000 0.000000
vt 0.000000 1.000000
vt 1.000000 1.000000
vt 1.000000 0.000000
vt 0.000000 0.000000
vt 0.000000 1.000000
vt 1.000000 1.000000
vt 1.000000 0.000000
vt 0.000000 0.000000
vt 0.000000 1.000000
vt 1.000000 1.000000
vt 1.000000 0.000000
vt 0.000000 0.000000
vt 0.000000 1.000000
vt 1.000000 1.000000
vt 1.000000 0.000000
vt 0.000000 0.000000
vt 0.000000 1.000000
vt 1.000000 1.000000
vt 1.000000 0.000000
vt 0.000000 0.000000
vt 0.000000 1.000000
vt 1.000000 1.000000
vt 1.000000 0.000000
vt 0.000000 0.000000
vt 0.000000 1.000000
vt 1.000000 1.000000
vt 1.000000 0.000000
vt 0.000000 0.000000
vt 0.000000 1.000000
vt 1.000000 1.000000
vt 1.000000 0.000000
vt 0.000000 0.000000
vt 0.000000 1.000000
vt 1.000000 1.000000
vt 1.000000 0.000000
vt 0.000000 0.000000
vt 0.000000 1.000000
vt 1.000000 1.000000
vt 1.000000 0.000000
vt 0.000000 0.000000
vt 0.000000 1.000000
vt 1.000000 1.000000
vt 1.000000 0.000000
vt 0.000000 0.000000
vt 0.000000 1.000000
vt 1.000000 1.000000
vt 1.000000 0.000000
vt 0.000000 0.000000
vt 0.000000 1.000000
vt 1.000000 1.000000
vt 1.000000 0.000000
vt 0.000000 0.000000
vt 0.000000 1.000000
vt 1.000000 1.000000
vt 1.000000 0.000000
vt 0.000000 0.000000
vt 0.000000 1.000000
vt 1.000000 1.000000
vt 1.000000 0.000000
vt 0.000000 0.000000
vt 0.000000 1.000000
vt 1.000000 1.000000
vt 1.000000 0.000000
vt 0.000000 0.000000
vt 0.000000 1.000000
vt 1.000000 1.000000
vt 1.000000 0.000000
vt 0.000000 0.000000
vt 0.000000 1.000000
vt 1.000000 1.000000
vt 1.000000 0.000000
g Cube
usemtl Default
f 3/1/3 1/2/1 2/3/2 4/4/4 
f 5/5/5 7/6/7 8/7/8 6/8/6 
f 2/3/2 1/2/1 5/5/5 6/8/6 
f 4/4/4 2/3/2 6/8/6 8/7/8 
f 3/1/3 4/4/4 8/7/8 7/6/7 
f 12/9/12 10/10/10 9/11/9 11/12/11 
f 14/13/14 16/14/16 15/15/15 13/16/13 
f 34/17/34 33/18/33 35/19/35 36/20/36 
f 38/21/38 37/22/37 39/23/39 40/24/40 
f 15/15/15 16/14/16 12/9/12 11/12/11 
f 11/12/11 9/11/9 1/2/1 3/1/3 
f 13/16/13 15/15/15 7/6/7 5/5/5 
f 9/11/9 13/16/13 5/5/5 1/2/1 
f 15/15/15 11/12/11 3/1/3 7/6/7 
f 14/25/14 13/26/13 17/27/17 18/28/18 
f 13/29/13 9/30/9 19/31/19 17/32/17 
f 9/33/9 10/34/10 20/35/20 19/36/19 
f 10/37/10 14/38/14 18/39/18 20/40/20 
f 18/41/18 17/42/17 21/43/21 22/44/22 
f 17/45/17 19/46/19 23/47/23 21/48/21 
f 19/49/19 20/50/20 24/51/24 23/52/23 
f 20/53/20 18/54/18 22/55/22 24/56/24 
f 22/57/22 21/58/21 25/59/25 26/60/26 
f 21/61/21 23/62/23 27/63/27 25/64/25 
f 23/65/23 24/66/24 28/67/28 27/68/27 
f 24/69/24 22/70/22 26/71/26 28/72/28 
f 26/73/26 25/74/25 29/75/29 30/76/30 
f 25/77/25 27/78/27 31/79/31 29/80/29 
f 27/81/27 28/82/28 32/83/32 31/84/31 
f 28/85/28 26/86/26 30/87/30 32/88/32 
f 30/89/30 29/90/29 33/91/33 34/92/34 
f 29/93/29 31/94/31 35/95/35 33/96/33 
f 31/97/31 32/98/32 36/99/36 35/100/35 
f 32/101/32 30/102/30 34/103/34 36/104/36 
f 16/105/16 14/106/14 37/107/37 38/108/38 
f 14/109/14 10/110/10 39/111/39 37/112/37 
f 10/113/10 12/114/12 40/115/40 39/116/39 
f 12/117/12 16/118/16 38/119/38 40/120/40 
